<?xml version="1.0" encoding="utf-8"?>
<!-- Generator: $$$/GeneralStr/196=Adobe Illustrator 27.6.0, SVG Export Plug-In . SVG Version: 6.00 Build 0)  -->
<svg version="1.1" id="图层_1" xmlns="http://www.w3.org/2000/svg" xmlns:xlink="http://www.w3.org/1999/xlink" x="0px" y="0px"
	 viewBox="0 0 1000 1000" style="enable-background:new 0 0 1000 1000;" xml:space="preserve">
<polygon points="385,461 385,307 308,307 308,153 231,153 231,384 308,384 308,461 "/>
<polygon points="385,538 385,692 308,692 308,846 231,846 231,615 308,615 308,538 "/>
<rect x="385" y="461" transform="matrix(-1 -1.224647e-16 1.224647e-16 -1 847 999)" width="77" height="77"/>
<polygon points="616,461 616,307 539,307 539,153 462,153 462,384 539,384 539,461 "/>
<polygon points="616,538 616,692 539,692 539,846 462,846 462,615 539,615 539,538 "/>
<rect x="616" y="461" transform="matrix(-1 -1.224647e-16 1.224647e-16 -1 1309 999)" width="77" height="77"/>
</svg>
