<?xml version="1.0" encoding="utf-8"?>
<!-- Generator: $$$/GeneralStr/196=Adobe Illustrator 27.6.0, SVG Export Plug-In . SVG Version: 6.00 Build 0)  -->
<svg version="1.1" id="图层_1" xmlns="http://www.w3.org/2000/svg" xmlns:xlink="http://www.w3.org/1999/xlink" x="0px" y="0px"
	 viewBox="0 0 1000 1000" style="enable-background:new 0 0 1000 1000;" xml:space="preserve">
<polygon points="616,461 616,307 693,307 693,153 770,153 770,384 693,384 693,461 "/>
<polygon points="616,538 616,692 693,692 693,846 770,846 770,615 693,615 693,538 "/>
<rect x="539" y="461" width="77" height="77"/>
<polygon points="385,461 385,307 462,307 462,153 539,153 539,384 462,384 462,461 "/>
<polygon points="385,538 385,692 462,692 462,846 539,846 539,615 462,615 462,538 "/>
<rect x="308" y="461" width="77" height="77"/>
</svg>
