<?xml version="1.0" encoding="utf-8"?>
<!-- Generator: $$$/GeneralStr/196=Adobe Illustrator 27.6.0, SVG Export Plug-In . SVG Version: 6.00 Build 0)  -->
<svg version="1.1" id="图层_1" xmlns="http://www.w3.org/2000/svg" xmlns:xlink="http://www.w3.org/1999/xlink" x="0px" y="0px"
	 viewBox="0 0 385 1000" style="enable-background:new 0 0 385 1000;" xml:space="preserve">
<rect x="77" y="307" transform="matrix(-1 -1.224647e-16 1.224647e-16 -1 231 691)" width="77" height="77"/>
<rect x="154" y="384" transform="matrix(-1 -1.224647e-16 1.224647e-16 -1 385 845)" width="77" height="77"/>
<rect x="77" y="615" transform="matrix(-1 -1.224647e-16 1.224647e-16 -1 231 1307)" width="77" height="77"/>
<rect x="154" y="538" transform="matrix(-1 -1.224647e-16 1.224647e-16 -1 385 1153)" width="77" height="77"/>
<rect x="231" y="461" transform="matrix(-1 -1.224647e-16 1.224647e-16 -1 539 999)" width="77" height="77"/>
</svg>
